<?xml version="1.0" encoding="utf-8"?>
<!-- Generator: Adobe Illustrator 19.0.0, SVG Export Plug-In . SVG Version: 6.00 Build 0)  -->
<svg version="1.1" id="Layer_1" xmlns="http://www.w3.org/2000/svg" xmlns:xlink="http://www.w3.org/1999/xlink" x="0px" y="0px"
	 viewBox="-391 262 176 38" style="enable-background:new -391 262 176 38;" xml:space="preserve">
<style type="text/css">
	.st0{fill:#FFFFFF;}
</style>
<polygon class="st0" points="-351.8,286.4 -347.4,275.1 -343,286.4 "/>
<path class="st0" d="M-299.1,271.5h15.5c-1,1.9-1.7,3.1-2.1,5h-13.4V271.5z"/>
<path class="st0" d="M-299.1,290.2v-5.6h13.3c0.4,2.5,1.1,3.7,2.2,5.6H-299.1z"/>
<path class="st0" d="M-258.9,288.1c-1.9,1.9-4.3,2.9-7,2.9c-2.8,0-5.2-0.9-7.1-2.9c-1.9-1.9-2.9-4.3-2.9-7.1c0-2.7,1-5.1,2.9-7
	c1.9-2,4.3-3,7-3s5.1,1,7,3c2,2,3,4.4,3,7C-255.9,283.7-256.9,286.1-258.9,288.1z"/>
<path class="st0" d="M-232.1,279.6h-5.9v-8.1h6.7c1.9,0,3.5,1.5,3.5,3.9C-227.8,278.1-229.5,279.6-232.1,279.6z"/>
<image style="overflow:visible;enable-background:new    ;" width="2518" height="1000" id="tamarillo_xA0_Image" xlink:href="61A2CCB0.png"  transform="matrix(7.174566e-002 0 0 7.173403e-002 -395.6556 262)">
</image>
</svg>
